<?xml version="1.0" encoding="UTF-8" standalone="no"?>
<!-- Created with Inkscape (http://www.inkscape.org/) -->

<svg
   width="121.491mm"
   height="121.921mm"
   viewBox="0 0 121.491 121.921"
   version="1.1"
   id="svg11765"
   inkscape:version="1.2.1 (2ed6d7ae0b, 2022-08-22, custom)"
   sodipodi:docname="icon-milky-dao.svg"
   xmlns:inkscape="http://www.inkscape.org/namespaces/inkscape"
   xmlns:sodipodi="http://sodipodi.sourceforge.net/DTD/sodipodi-0.dtd"
   xmlns="http://www.w3.org/2000/svg"
   xmlns:svg="http://www.w3.org/2000/svg">
  <sodipodi:namedview
     id="namedview11767"
     pagecolor="#505050"
     bordercolor="#eeeeee"
     borderopacity="1"
     inkscape:showpageshadow="0"
     inkscape:pageopacity="0"
     inkscape:pagecheckerboard="0"
     inkscape:deskcolor="#767876"
     inkscape:document-units="mm"
     showgrid="false"
     inkscape:zoom="1.0406414"
     inkscape:cx="247.44356"
     inkscape:cy="252.72876"
     inkscape:window-width="1920"
     inkscape:window-height="1014"
     inkscape:window-x="0"
     inkscape:window-y="34"
     inkscape:window-maximized="1"
     inkscape:current-layer="layer1" />
  <defs
     id="defs11762" />
  <g
     inkscape:label="Layer 1"
     inkscape:groupmode="layer"
     id="layer1">
    <path
       style="display:inline;fill:#fd7922;fill-opacity:1;stroke:none;stroke-width:0.587;stroke-opacity:1;stroke-dasharray:none"
       d="M 9.8761765,5.7880109 C 9.6569717,8.6590942 8.6386758,9.6775494 5.7676061,9.8966039 5.9913089,12.766501 7.1034643,13.327205 9.8761765,13.418243 v 3.52165 h 3.5216355 v -3.52165 h 3.521669 V 9.8966039 H 13.397812 C 13.306951,7.123889 12.746076,6.0116232 9.8761765,5.7880109 m 23.4776455,0 v 3.5216498 h 3.521634 V 5.7880109 H 33.353822 M 55.070632,55.091026 C 44.669899,67.792413 50.743637,85.11128 68.570239,81.817964 80.404133,79.63218 89.342065,68.568957 93.883223,58.025732 104.11008,34.284745 92.14353,8.4397012 64.46167,7.701006 46.405844,7.2191784 29.999098,17.03081 17.506408,29.265637 v 0.586944 l 2.34777,2.347764 h 0.586936 C 30.631278,22.016921 43.710198,12.753006 58.592265,11.709959 82.33814,10.045687 100.51625,28.32577 92.127103,52.156324 88.732249,61.800337 81.744724,72.547832 72.0919,76.782584 63.573632,80.519648 52.926806,78.25992 53.309797,67.416797 72.894836,80.158097 94.592268,49.880407 79.530793,34.131029 70.389187,24.5717 55.468792,24.683799 43.918759,29.15471 23.088747,37.217689 8.0564788,60.184972 6.3042826,82.090304 5.5885549,91.037621 7.0026785,109.00387 16.382771,113.93067 c 2.403997,1.26308 3.167943,-1.35292 2.100071,-3.08086 C 13.560041,102.88561 9.7016225,96.537257 9.4414252,86.785809 8.7814135,62.053906 31.246524,30.504086 57.418366,29.861208 c 7.899067,-0.194046 16.54646,2.299812 21.051813,9.382894 5.96506,9.378772 -1.645196,24.638708 -11.660748,27.585732 8.366835,-10.374278 7.009238,-28.911632 -9.978001,-27.223001 -24.80018,2.465375 -41.615091,38.351985 -28.485637,59.504739 7.772703,12.522368 23.062379,15.942498 36.702813,14.573148 11.136631,-1.11753 21.797196,-6.57668 30.520902,-13.33352 3.293314,-2.55086 9.392242,-6.225103 6.456342,-10.630666 h -0.58691 C 91.280752,99.872251 78.135047,109.17058 63.287771,110.21061 39.550439,111.87458 21.286959,93.593735 29.75248,69.764559 33.190125,60.087986 40.144724,49.416028 49.788163,45.056864 58.296023,41.211055 68.947049,43.843069 68.570239,54.504092 48.941206,41.734423 27.24962,72.000782 42.349035,87.790065 c 9.330255,9.756136 24.503821,9.392812 36.199205,4.745437 20.397947,-8.105645 35.3978,-31.141307 37.02714,-52.704925 0.67792,-8.975329 -0.69024,-26.909878 -10.07834,-31.8406319 -2.40354,-1.2626539 -3.16773,1.3532288 -2.10007,3.0810039 3.75055,6.067377 7.46471,10.822773 8.43727,18.194688 C 115.31774,55.680599 93.154248,91.355159 64.46167,92.05949 56.562449,92.253804 47.91569,89.75985 43.410182,82.676633 37.435403,73.283831 45.02048,58.048395 55.070632,55.091026 M 90.287076,9.8966039 V 13.418243 H 93.80871 V 9.8966039 H 90.287076 M 9.8761765,36.895869 v 4.108583 c 4.0431375,-0.315013 4.0431375,-3.79357 0,-4.108583 M 5.7676061,53.330223 h 3.5216354 v -3.521665 c -2.561843,0.199713 -3.3220423,0.959821 -3.5216354,3.521665 m 55.1729909,2.588202 c 7.227609,-1.443631 5.925753,8.899974 -9.05e-4,10.083829 -7.227563,1.443867 -5.92568,-8.900002 9.05e-4,-10.083829 m 51.650213,24.998007 v 4.108569 c 4.04341,-0.315193 4.04341,-3.793402 0,-4.108569 m -9.39106,24.064548 v 3.52167 h -3.521638 v 3.52163 h 3.521638 v 4.10857 h 3.52163 v -4.10857 h 3.52167 v -3.52163 h -3.52167 v -3.52167 h -3.52163 m -73.367589,7.63024 v 3.52163 h 3.521661 v -3.52163 z"
       id="path3558" />
  </g>
</svg>
