<svg width="282" height="60" viewBox="0 0 282 60" fill="none" xmlns="http://www.w3.org/2000/svg">
<path d="M20.736 35.676H17.136L30.24 22.14H36.24V37.5H30.24V27.036L32.04 27.78L22.56 37.5H15.36L5.856 27.804L7.68 27.06V37.5H1.68V22.14H7.68L20.736 35.676ZM45.3379 19.572V23.172H39.2419V19.572H45.3379ZM39.4099 25.74H45.1699V37.5H39.4099V25.74ZM48.1041 20.94H53.8641V37.5H48.1041V20.94ZM56.6325 20.94H62.3925V37.5H56.6325V20.94ZM76.9845 25.74L67.4805 32.34L67.6005 29.22L77.8005 37.5H70.5045L62.4885 30.804L69.3525 25.74H76.9845ZM78.0497 25.74H84.1697L91.1777 37.02L86.2097 37.5L78.0497 25.74ZM100.13 25.74L88.4417 42.3H82.5617L87.5777 35.508L94.0097 25.74H100.13Z" fill="white"/>
<g clip-path="url(#clip0_4_365)">
<path d="M145.189 0L145.508 6.81375L152.316 7.12696L145.508 7.44017L145.189 14.2539L144.876 7.44017L138.062 7.12696L144.876 6.81375L145.189 0Z" fill="url(#paint0_linear_4_365)"/>
<path d="M167.096 38.7019L167.308 43.3645L171.971 43.5773L167.308 43.7959L167.096 48.4586L166.877 43.7959L162.214 43.5773L166.877 43.3645L167.096 38.7019Z" fill="url(#paint1_linear_4_365)"/>
<path d="M151.547 26.9773C135.491 12.0378 120.233 2.37566 117.443 5.37182C114.654 8.37389 125.392 22.8996 141.448 37.8391C157.504 52.7785 172.786 62.4584 175.576 59.4563C178.365 56.4602 167.61 41.9167 151.553 26.9773H151.547ZM142.21 37.0117C127.011 22.8642 116.781 9.15987 119.358 6.39418C121.934 3.6285 136.336 12.8415 151.541 26.9891C166.747 41.1366 176.97 54.841 174.4 57.6066C171.823 60.3782 157.422 51.1652 142.216 37.0117H142.21Z" fill="url(#paint2_linear_4_365)"/>
<path d="M148.776 42.6435C146.619 42.6435 144.515 42.0349 142.695 40.8825C142.34 40.6816 141.998 40.4452 141.684 40.1852C138.877 37.9927 137.258 34.6952 137.258 31.1317C137.258 30.7475 137.282 30.3516 137.311 29.9438C137.944 24.0402 142.872 19.6139 148.776 19.6139C151.181 19.6139 153.468 20.3408 155.383 21.7177C155.448 21.765 155.69 21.9482 155.761 22.0073C158.645 24.2056 160.3 27.5327 160.3 31.1317C160.3 31.4862 160.276 31.8763 160.246 32.2368V32.2959C160.187 32.6741 160.14 33.0641 160.063 33.4305C158.988 38.7669 154.242 42.6435 148.782 42.6435H148.776ZM148.776 19.8976C143.02 19.8976 138.209 24.2175 137.595 29.9438C137.571 30.3634 137.548 30.7535 137.548 31.1317C137.548 34.6065 139.12 37.8272 141.862 39.9665C142.169 40.2206 142.494 40.4452 142.843 40.6461C144.621 41.7689 146.672 42.3658 148.776 42.3658C154.1 42.3658 158.728 38.5896 159.779 33.3832C159.85 33.0227 159.904 32.6327 159.951 32.2663V32.219C159.98 31.8704 160.004 31.4922 160.004 31.1435C160.004 27.6332 158.397 24.3888 155.59 22.2496C155.513 22.1905 155.276 22.0073 155.211 21.96C153.344 20.6185 151.116 19.9094 148.77 19.9094L148.776 19.8976Z" fill="url(#paint3_linear_4_365)"/>
<path d="M148.776 48.1454C145.585 48.1454 142.476 47.2412 139.787 45.5392C139.261 45.2379 138.759 44.8892 138.292 44.5051C134.138 41.2725 131.756 36.3912 131.756 31.1258C131.756 30.5584 131.792 29.9734 131.833 29.3706V29.3411C132.767 20.6481 140.053 14.1062 148.776 14.1062C152.333 14.1062 155.708 15.1817 158.538 17.2146C158.603 17.2619 158.804 17.4096 158.946 17.5219L159.112 17.646C163.361 20.8904 165.795 25.8012 165.795 31.1199C165.795 31.6517 165.76 32.219 165.719 32.7568L165.695 32.9459C165.624 33.466 165.553 34.0037 165.447 34.5179C163.857 42.4072 156.842 48.1335 148.776 48.1335V48.1454ZM148.776 14.3957C140.195 14.3957 133.039 20.8313 132.117 29.3588V29.3824C132.075 29.9911 132.046 30.5703 132.046 31.1258C132.046 36.3085 134.386 41.1011 138.475 44.2864C138.93 44.6646 139.421 45.0015 139.941 45.297C142.588 46.9753 145.644 47.8558 148.782 47.8558C156.718 47.8558 163.609 42.224 165.175 34.4706C165.275 33.9683 165.346 33.4305 165.417 32.9164L165.441 32.7332C165.476 32.2072 165.512 31.6458 165.512 31.1258C165.512 25.8958 163.118 21.0677 158.94 17.8765L158.775 17.7524C158.627 17.6401 158.438 17.4924 158.373 17.451C155.59 15.4536 152.274 14.3957 148.776 14.3957Z" fill="url(#paint4_linear_4_365)"/>
<path d="M157.693 31.1258C157.693 31.4035 157.676 31.7049 157.652 31.9886C157.611 32.29 157.569 32.6091 157.51 32.9105C156.689 36.9822 153.078 40.0433 148.77 40.0433C147.044 40.0433 145.425 39.541 144.06 38.6782C143.782 38.5187 143.516 38.3355 143.28 38.1345C141.194 36.5094 139.852 33.9683 139.852 31.1199C139.852 30.8185 139.87 30.4994 139.894 30.198V30.1802C140.372 25.7126 144.16 22.2023 148.77 22.2023C150.756 22.2023 152.576 22.8464 154.041 23.9456C153.722 24.0638 153.74 24.0638 154.059 23.9634C156.263 25.5885 157.687 28.1946 157.687 31.1199L157.693 31.1258Z" fill="url(#paint5_linear_4_365)"/>
<path d="M129.493 21.7709C129.493 23.2542 128.287 24.4598 126.804 24.4598C125.321 24.4598 124.115 23.2542 124.115 21.7709C124.115 20.2876 125.321 19.082 126.804 19.082C128.287 19.082 129.493 20.2876 129.493 21.7709Z" fill="url(#paint6_linear_4_365)"/>
<path d="M176.622 34.3111C176.622 36.0662 175.198 37.4845 173.448 37.4845C171.699 37.4845 170.275 36.0603 170.275 34.3111C170.275 32.5618 171.699 31.1376 173.448 31.1376C175.198 31.1376 176.622 32.5618 176.622 34.3111Z" fill="url(#paint7_linear_4_365)"/>
<path d="M130.515 50.6983C131.256 50.6983 131.857 50.0977 131.857 49.3569C131.857 48.616 131.256 48.0154 130.515 48.0154C129.774 48.0154 129.174 48.616 129.174 49.3569C129.174 50.0977 129.774 50.6983 130.515 50.6983Z" fill="url(#paint8_linear_4_365)"/>
<path d="M160.045 11.1987C160.045 12.221 159.218 13.0484 158.196 13.0484C157.173 13.0484 156.346 12.221 156.346 11.1987C156.346 10.1763 157.173 9.34897 158.196 9.34897C159.218 9.34897 160.045 10.1763 160.045 11.1987Z" fill="url(#paint9_linear_4_365)"/>
<path d="M174.027 20.5122C173.165 18.5443 165.801 19.7498 156.21 23.1656C165.057 20.0512 171.794 18.9402 172.556 20.7308C173.383 22.6396 167.09 27.3082 157.676 31.9886C155.666 32.9932 153.492 34.0215 151.222 35.0025C148.468 36.208 145.774 37.2717 143.262 38.1582C134.096 41.4735 127.034 42.6849 126.231 40.853C125.445 39.021 131.177 34.6774 139.864 30.198C130.456 35.0025 124.221 39.7301 125.084 41.7571C125.988 43.79 133.89 42.419 144.042 38.7019C146.436 37.8391 148.947 36.8344 151.524 35.7057C153.616 34.8015 155.625 33.856 157.534 32.9105C167.887 27.8223 174.949 22.6337 174.022 20.5063L174.027 20.5122ZM154.083 23.9515C154.804 23.6679 155.513 23.4079 156.216 23.1656C155.513 23.3842 154.786 23.6502 154.065 23.9279C154.065 23.9279 154.071 23.9338 154.083 23.9456V23.9515ZM139.864 30.1862V30.2039C139.923 30.1862 140.006 30.1448 140.065 30.1034C140.006 30.1211 139.947 30.1625 139.864 30.1862Z" fill="url(#paint10_linear_4_365)"/>
<path d="M171.232 19.7557C171.232 20.2876 170.801 20.719 170.269 20.719C169.737 20.719 169.306 20.2876 169.306 19.7557C169.306 19.2239 169.737 18.7925 170.269 18.7925C170.801 18.7925 171.232 19.2239 171.232 19.7557Z" fill="url(#paint11_linear_4_365)"/>
<path d="M123.908 41.5975C123.719 41.9935 123.589 42.4663 123.719 42.874C123.861 43.3291 124.287 43.5477 124.688 43.6659C125.315 43.8491 125.977 43.8786 126.627 43.7664C125.693 43.9436 124.747 43.9968 123.814 43.9259C123.477 43.9023 123.099 43.8314 122.927 43.5004C122.78 43.2168 122.839 42.8326 122.957 42.5135C123.211 41.8339 123.713 41.3198 124.21 40.847C124.576 40.4984 124.948 40.1674 125.327 39.8365C125.096 40.1083 124.736 40.4334 124.612 40.5693C124.334 40.8707 124.103 41.2193 123.92 41.6035L123.908 41.5975Z" fill="url(#paint12_linear_4_365)"/>
<path d="M174.494 19.153C174.914 19.283 175.351 19.5016 175.564 19.868C175.806 20.2817 175.682 20.7426 175.499 21.1149C175.215 21.7 174.796 22.2141 174.27 22.616C175.28 21.9718 175.8 21.4577 176.374 20.719C176.58 20.4531 176.687 20.0453 176.557 19.6907C176.444 19.3953 176.125 19.1766 175.806 19.0466C175.133 18.7748 174.412 18.7866 173.732 18.8398C173.23 18.8752 172.733 18.9461 172.237 19.0052C172.674 18.9698 173.076 18.9639 173.259 18.9639C173.667 18.9639 174.081 19.023 174.488 19.1471L174.494 19.153Z" fill="url(#paint13_linear_4_365)"/>
</g>
<path d="M211.582 22.14C213.742 22.14 215.526 22.348 216.934 22.764C218.342 23.18 219.446 23.748 220.246 24.468C221.046 25.188 221.606 26.012 221.926 26.94C222.262 27.852 222.43 28.812 222.43 29.82C222.43 30.828 222.246 31.796 221.878 32.724C221.51 33.636 220.902 34.452 220.054 35.172C219.222 35.892 218.11 36.46 216.718 36.876C215.342 37.292 213.63 37.5 211.582 37.5H194.302V22.14H211.582ZM200.302 32.7H211.342C212.238 32.7 212.998 32.644 213.622 32.532C214.246 32.404 214.742 32.22 215.11 31.98C215.494 31.74 215.766 31.444 215.926 31.092C216.102 30.724 216.19 30.3 216.19 29.82C216.19 29.34 216.102 28.924 215.926 28.572C215.766 28.204 215.494 27.9 215.11 27.66C214.742 27.42 214.246 27.244 213.622 27.132C212.998 27.004 212.238 26.94 211.342 26.94H200.302V32.7ZM228.05 35.172V31.572H244.466V35.172H228.05ZM222.674 37.5L232.97 22.14H239.642L250.034 37.5H243.434L234.53 23.748H238.106L229.274 37.5H222.674ZM264.808 37.98C261.32 37.98 258.512 37.676 256.384 37.068C254.256 36.444 252.704 35.532 251.728 34.332C250.768 33.116 250.288 31.612 250.288 29.82C250.288 28.028 250.768 26.532 251.728 25.332C252.704 24.116 254.256 23.204 256.384 22.596C258.512 21.972 261.32 21.66 264.808 21.66C268.296 21.66 271.104 21.972 273.232 22.596C275.36 23.204 276.904 24.116 277.864 25.332C278.84 26.532 279.328 28.028 279.328 29.82C279.328 31.612 278.84 33.116 277.864 34.332C276.904 35.532 275.36 36.444 273.232 37.068C271.104 37.676 268.296 37.98 264.808 37.98ZM264.808 33.42C266.456 33.42 267.88 33.324 269.08 33.132C270.28 32.924 271.208 32.564 271.864 32.052C272.52 31.524 272.848 30.78 272.848 29.82C272.848 28.86 272.52 28.124 271.864 27.612C271.208 27.084 270.28 26.724 269.08 26.532C267.88 26.324 266.456 26.22 264.808 26.22C263.16 26.22 261.712 26.324 260.464 26.532C259.232 26.724 258.264 27.084 257.56 27.612C256.872 28.124 256.528 28.86 256.528 29.82C256.528 30.78 256.872 31.524 257.56 32.052C258.264 32.564 259.232 32.924 260.464 33.132C261.712 33.324 263.16 33.42 264.808 33.42Z" fill="white"/>
<defs>
<linearGradient id="paint0_linear_4_365" x1="145.189" y1="0" x2="152.316" y2="0" gradientUnits="userSpaceOnUse">
<stop stop-color="#4E10FF"/>
<stop offset="1" stop-color="#AB17DF"/>
</linearGradient>
<linearGradient id="paint1_linear_4_365" x1="167.093" y1="38.7019" x2="171.971" y2="38.7019" gradientUnits="userSpaceOnUse">
<stop stop-color="#4E10FF"/>
<stop offset="1" stop-color="#AB17DF"/>
</linearGradient>
<linearGradient id="paint2_linear_4_365" x1="146.509" y1="4.82703" x2="176.016" y2="4.82703" gradientUnits="userSpaceOnUse">
<stop stop-color="#4E10FF"/>
<stop offset="1" stop-color="#AB17DF"/>
</linearGradient>
<linearGradient id="paint3_linear_4_365" x1="148.779" y1="19.6139" x2="160.3" y2="19.6139" gradientUnits="userSpaceOnUse">
<stop stop-color="#4E10FF"/>
<stop offset="1" stop-color="#AB17DF"/>
</linearGradient>
<linearGradient id="paint4_linear_4_365" x1="148.776" y1="14.1062" x2="165.795" y2="14.1062" gradientUnits="userSpaceOnUse">
<stop stop-color="#4E10FF"/>
<stop offset="1" stop-color="#AB17DF"/>
</linearGradient>
<linearGradient id="paint5_linear_4_365" x1="148.773" y1="22.2023" x2="157.693" y2="22.2023" gradientUnits="userSpaceOnUse">
<stop stop-color="#4E10FF"/>
<stop offset="1" stop-color="#AB17DF"/>
</linearGradient>
<linearGradient id="paint6_linear_4_365" x1="126.804" y1="19.082" x2="129.493" y2="19.082" gradientUnits="userSpaceOnUse">
<stop stop-color="#4E10FF"/>
<stop offset="1" stop-color="#AB17DF"/>
</linearGradient>
<linearGradient id="paint7_linear_4_365" x1="173.448" y1="31.1376" x2="176.622" y2="31.1376" gradientUnits="userSpaceOnUse">
<stop stop-color="#4E10FF"/>
<stop offset="1" stop-color="#AB17DF"/>
</linearGradient>
<linearGradient id="paint8_linear_4_365" x1="130.515" y1="48.0154" x2="131.857" y2="48.0154" gradientUnits="userSpaceOnUse">
<stop stop-color="#4E10FF"/>
<stop offset="1" stop-color="#AB17DF"/>
</linearGradient>
<linearGradient id="paint9_linear_4_365" x1="158.196" y1="9.34897" x2="160.045" y2="9.34897" gradientUnits="userSpaceOnUse">
<stop stop-color="#4E10FF"/>
<stop offset="1" stop-color="#AB17DF"/>
</linearGradient>
<linearGradient id="paint10_linear_4_365" x1="149.554" y1="19.566" x2="174.103" y2="19.566" gradientUnits="userSpaceOnUse">
<stop stop-color="#4E10FF"/>
<stop offset="1" stop-color="#AB17DF"/>
</linearGradient>
<linearGradient id="paint11_linear_4_365" x1="170.269" y1="18.7925" x2="171.232" y2="18.7925" gradientUnits="userSpaceOnUse">
<stop stop-color="#4E10FF"/>
<stop offset="1" stop-color="#AB17DF"/>
</linearGradient>
<linearGradient id="paint12_linear_4_365" x1="124.733" y1="39.8365" x2="126.627" y2="39.8365" gradientUnits="userSpaceOnUse">
<stop stop-color="#4E10FF"/>
<stop offset="1" stop-color="#AB17DF"/>
</linearGradient>
<linearGradient id="paint13_linear_4_365" x1="174.425" y1="18.8093" x2="176.614" y2="18.8093" gradientUnits="userSpaceOnUse">
<stop stop-color="#4E10FF"/>
<stop offset="1" stop-color="#AB17DF"/>
</linearGradient>
<clipPath id="clip0_4_365">
<rect width="59.6218" height="60" fill="white" transform="translate(117)"/>
</clipPath>
</defs>
</svg>
