<?xml version="1.0" encoding="UTF-8" standalone="no"?>
<!-- Created with Inkscape (http://www.inkscape.org/) -->

<svg
   width="162.15401mm"
   height="46.397999mm"
   viewBox="0 0 162.15401 46.397999"
   version="1.1"
   id="svg319"
   inkscape:version="1.2.1 (2ed6d7ae0b, 2022-08-22, custom)"
   sodipodi:docname="logo-milky-dao-light.svg"
   inkscape:export-filename="../18c66ba9/logo-milky-dao-dark.png"
   inkscape:export-xdpi="96"
   inkscape:export-ydpi="96"
   xmlns:inkscape="http://www.inkscape.org/namespaces/inkscape"
   xmlns:sodipodi="http://sodipodi.sourceforge.net/DTD/sodipodi-0.dtd"
   xmlns:xlink="http://www.w3.org/1999/xlink"
   xmlns="http://www.w3.org/2000/svg"
   xmlns:svg="http://www.w3.org/2000/svg">
  <sodipodi:namedview
     id="namedview321"
     pagecolor="#505050"
     bordercolor="#eeeeee"
     borderopacity="1"
     inkscape:showpageshadow="0"
     inkscape:pageopacity="0"
     inkscape:pagecheckerboard="0"
     inkscape:deskcolor="#dfdfdf"
     inkscape:document-units="mm"
     showgrid="false"
     inkscape:zoom="1.4142136"
     inkscape:cx="182.07999"
     inkscape:cy="57.982755"
     inkscape:window-width="1920"
     inkscape:window-height="1014"
     inkscape:window-x="0"
     inkscape:window-y="34"
     inkscape:window-maximized="1"
     inkscape:current-layer="logo-center"
     showguides="true" />
  <defs
     id="defs316" />
  <g
     inkscape:label="Layer 1"
     inkscape:groupmode="layer"
     id="layer1">
    <g
       id="logo-group"
       transform="matrix(0.4607456,0,0,0.4607456,-155.82484,-149.82926)">
      <image
         xlink:href=""
         id="container"
         x="272"
         y="144"
         width="480"
         height="480"
         style="display:none" />
      <g
         id="logo-center">
        <rect
           style="display:none;fill:#f9fafb;fill-opacity:1;stroke-width:1.10907"
           id="rect4061"
           width="351.93826"
           height="100.70199"
           x="338.20148"
           y="325.18869" />
        <rect
           style="display:none;fill:#010101;fill-opacity:1;stroke-width:1.10907"
           id="rect1875"
           width="351.93826"
           height="100.70199"
           x="338.20148"
           y="325.18869" />
        <g
           id="g484"
           style="display:none;fill:#000000;fill-opacity:1"
           transform="translate(1.1485007,-3.4455021)">
          <text
             xml:space="preserve"
             style="font-style:normal;font-variant:normal;font-weight:bold;font-stretch:normal;font-size:49.7684px;line-height:1.25;font-family:Nasalization;-inkscape-font-specification:'Nasalization Bold';fill:#000000;fill-opacity:1;stroke:none;stroke-width:1.61148"
             x="340.66254"
             y="395.09711"
             id="text478"><tspan
               sodipodi:role="line"
               id="tspan476"
               style="font-style:normal;font-variant:normal;font-weight:bold;font-stretch:normal;font-size:49.7684px;font-family:Nasalization;-inkscape-font-specification:'Nasalization Bold';fill:#000000;fill-opacity:1;stroke-width:1.61148"
               x="340.66254"
               y="395.09711">Milky</tspan></text>
          <text
             xml:space="preserve"
             style="font-style:normal;font-variant:normal;font-weight:bold;font-stretch:normal;font-size:49.7684px;line-height:1.25;font-family:Nasalization;-inkscape-font-specification:'Nasalization Bold';fill:#000000;fill-opacity:1;stroke:none;stroke-width:1.61148"
             x="575.56012"
             y="398.63068"
             id="text482"><tspan
               sodipodi:role="line"
               id="tspan480"
               style="font-style:normal;font-variant:normal;font-weight:bold;font-stretch:normal;font-size:49.7684px;font-family:Nasalization;-inkscape-font-specification:'Nasalization Bold';fill:#000000;fill-opacity:1;stroke-width:1.61148"
               x="575.56012"
               y="398.63068">DAO</tspan></text>
        </g>
        <g
           id="title-3"
           style="font-style:normal;font-weight:200;font-size:72px;line-height:1;font-family:Phenomena;font-variant-ligatures:none;text-align:center;text-anchor:middle;display:none;fill:#1a1a1a;fill-opacity:1"
           transform="translate(1.7619262,1.7343349)">
          <path
             id="path54366-6"
             style="font-style:normal;font-weight:200;font-size:72px;line-height:1;font-family:Phenomena;font-variant-ligatures:none;text-align:center;text-anchor:middle;fill:#1a1a1a;fill-opacity:1"
             d="m 426.0995,-50.904 c -4.392,0 -7.848,3.096 -9.288,7.344 -1.44,-4.248 -4.968,-7.344 -9.288,-7.344 -6.336,0 -10.152,5.184 -10.152,11.88 V -0.36 c 0,0.216 0.144,0.36 0.36,0.36 h 0.72 c 0.216,0 0.36,-0.144 0.36,-0.36 v -38.664 c 0,-6.048 3.24,-10.512 8.712,-10.512 5.04,0 8.568,4.68 8.568,10.512 V -0.36 c 0,0.216 0.144,0.36 0.36,0.36 h 0.72 c 0.216,0 0.36,-0.144 0.36,-0.36 v -38.664 c 0,-5.832 3.6,-10.512 8.568,-10.512 5.544,0 8.712,4.464 8.712,10.512 V -0.36 c 0,0.216 0.144,0.36 0.36,0.36 h 0.72 c 0.216,0 0.36,-0.144 0.36,-0.36 v -38.664 c 0,-6.696 -3.888,-11.88 -10.152,-11.88 z"
             stroke-width="0"
             stroke-linejoin="miter"
             stroke-miterlimit="2"
             fill="#a49dee"
             stroke="#a49dee"
             transform="matrix(1.11,0,0,1.11,-102.88089,401.00298)" />
          <path
             id="path54368-7"
             style="font-style:normal;font-weight:200;font-size:72px;line-height:1;font-family:Phenomena;font-variant-ligatures:none;text-align:center;text-anchor:middle;fill:#1a1a1a;fill-opacity:1"
             d="m 447.59487,-42.12 c 0.936,0 1.584,-0.648 1.584,-1.584 0,-0.936 -0.648,-1.584 -1.584,-1.584 -0.93599,0 -1.584,0.648 -1.584,1.584 0,0.936 0.64801,1.584 1.584,1.584 z m -0.36,42.12 h 0.64801 c 0.216,0 0.36,-0.144 0.36,-0.36 v -35.28 c 0,-0.216 -0.144,-0.36 -0.36,-0.36 h -0.64801 c -0.216,0 -0.36,0.144 -0.36,0.36 v 35.28 c 0,0.216 0.144,0.36 0.36,0.36 z"
             stroke-width="0"
             stroke-linejoin="miter"
             stroke-miterlimit="2"
             fill="#a49dee"
             stroke="#a49dee"
             transform="matrix(1.11,0,0,1.11,-102.88089,401.00298)" />
          <path
             id="path54370-5"
             style="font-style:normal;font-weight:200;font-size:72px;line-height:1;font-family:Phenomena;font-variant-ligatures:none;text-align:center;text-anchor:middle;fill:#1a1a1a;fill-opacity:1"
             d="m 459.60987,0 h 0.64801 c 0.216,0 0.36,-0.144 0.36,-0.36 v -49.68 c 0,-0.216 -0.144,-0.36 -0.36,-0.36 h -0.64801 c -0.216,0 -0.36,0.144 -0.36,0.36 v 49.68 c 0,0.216 0.144,0.36 0.36,0.36 z"
             stroke-width="0"
             stroke-linejoin="miter"
             stroke-miterlimit="2"
             fill="#a49dee"
             stroke="#a49dee"
             transform="matrix(1.11,0,0,1.11,-102.88089,401.00298)" />
          <path
             id="path54372-3"
             style="font-style:normal;font-weight:200;font-size:72px;line-height:1;font-family:Phenomena;font-variant-ligatures:none;text-align:center;text-anchor:middle;fill:#1a1a1a;fill-opacity:1"
             d="m 480.12087,-19.944 10.87201,-15.624 c 0.144,-0.216 0.072,-0.432 -0.216,-0.432 h -0.86401 c -0.144,0 -0.36,0.072 -0.43199,0.216 l -10.87201,15.768 h -5.61599 V -50.04 c 0,-0.216 -0.144,-0.36 -0.36,-0.36 h -0.64801 c -0.216,0 -0.36,0.144 -0.36,0.36 v 49.68 c 0,0.216 0.144,0.36 0.36,0.36 h 0.64801 c 0.216,0 0.36,-0.144 0.36,-0.36 v -18.36 h 7.84799 c 5.32801,0 8.49601,3.24 8.49601,8.784 v 9.576 c 0,0.216 0.144,0.36 0.35999,0.36 h 0.648 c 0.216,0 0.36001,-0.144 0.36001,-0.36 v -9.576 c 0,-6.264 -3.96001,-10.008 -10.58401,-10.008 z"
             stroke-width="0"
             stroke-linejoin="miter"
             stroke-miterlimit="2"
             fill="#a49dee"
             stroke="#a49dee"
             transform="matrix(1.11,0,0,1.11,-102.88089,401.00298)" />
          <path
             id="path54374-5"
             style="font-style:normal;font-weight:200;font-size:72px;line-height:1;font-family:Phenomena;font-variant-ligatures:none;text-align:center;text-anchor:middle;fill:#1a1a1a;fill-opacity:1"
             d="m 517.48212,-36 h -0.648 c -0.216,0 -0.36,0.144 -0.36,0.36 v 24.48 c 0,5.688 -3.096,9.864 -8.352,9.864 -5.328,0 -8.496,-4.176 -8.496,-9.864 v -24.48 c 0,-0.216 -0.144,-0.36 -0.36,-0.36 h -0.64799 c -0.21601,0 -0.36001,0.144 -0.36001,0.36 v 24.48 c 0,6.408 3.744,11.16 9.864,11.16 3.81601,0 6.91201,-2.16 8.352,-5.544 V 4.32 c 0,5.256 -3.096,9.504 -8.424,9.504 -5.184,0 -8.28,-3.96 -8.424,-8.928 0,-0.216 -0.144,-0.36 -0.36,-0.36 h -0.64799 c -0.21601,0 -0.36001,0.144 -0.36001,0.36 0.144,5.688 3.888,10.224 9.792,10.224 6.048,0 9.792,-4.824 9.792,-10.8 v -39.96 c 0,-0.216 -0.144,-0.36 -0.36,-0.36 z"
             stroke-width="0"
             stroke-linejoin="miter"
             stroke-miterlimit="2"
             fill="#a49dee"
             stroke="#a49dee"
             transform="matrix(1.11,0,0,1.11,-102.88089,401.00298)" />
          <path
             id="path54376-6"
             style="font-style:normal;font-weight:200;font-size:72px;line-height:1;font-family:Phenomena;font-variant-ligatures:none;text-align:center;text-anchor:middle;display:none;fill:#1a1a1a;fill-opacity:1"
             d="M 528.43737,-57.24 V 4.68 c 0,0.216 0.144,0.36 0.36,0.36 h 0.72001 c 0.216,0 0.36,-0.144 0.36,-0.36 v -61.92 c 0,-0.216 -0.144,-0.36 -0.36,-0.36 h -0.72001 c -0.216,0 -0.36,0.144 -0.36,0.36 z"
             stroke-width="0"
             stroke-linejoin="miter"
             stroke-miterlimit="2"
             fill="#a49dee"
             stroke="#a49dee" />
          <path
             id="path54378-2"
             style="font-style:normal;font-weight:200;font-size:72px;line-height:1;font-family:Phenomena;font-variant-ligatures:none;text-align:center;text-anchor:middle;fill:#1a1a1a;fill-opacity:1"
             d="m 541.82713,0.144 h 9.432 c 6.69599,0 11.376,-5.4 11.376,-11.88 v -27.936 c 0,-6.192 -4.68001,-10.872 -11.376,-10.872 h -9.432 c -0.43201,0 -0.72001,0.288 -0.72001,0.72 v 49.248 c 0,0.432 0.288,0.72 0.72001,0.72 z m 0.72,-1.368 v -47.952 h 8.712 c 5.904,0 9.93599,4.032 9.93599,9.504 v 27.936 c 0,5.76 -4.03199,10.512 -9.93599,10.512 z"
             stroke-width="0"
             stroke-linejoin="miter"
             stroke-miterlimit="2"
             fill="#a49dee"
             stroke="#a49dee"
             transform="matrix(1.11,0,0,1.11,-10.613258,401.00298)" />
          <path
             id="path54380-9"
             style="font-style:normal;font-weight:200;font-size:72px;line-height:1;font-family:Phenomena;font-variant-ligatures:none;text-align:center;text-anchor:middle;fill:#1a1a1a;fill-opacity:1"
             d="m 572.669,0 h 0.72 c 0.216,0 0.36,-0.144 0.36,-0.36 v -19.584 h 19.368 V -0.36 c 0.072,0.216 0.216,0.36 0.432,0.36 h 0.72 c 0.216,0 0.36,-0.144 0.288,-0.36 v -37.944 c -0.072,-7.56 -4.536,-12.6 -11.16,-12.6 -6.624,0 -11.088,5.04 -11.088,12.6 V -0.36 c 0,0.216 0.144,0.36 0.36,0.36 z m 1.08,-21.312 v -16.992 c 0,-6.84 3.888,-11.232 9.648,-11.232 5.976,0 9.72,4.392 9.72,11.232 v 16.992 z"
             stroke-width="0"
             stroke-linejoin="miter"
             stroke-miterlimit="2"
             fill="#a49dee"
             stroke="#a49dee"
             transform="matrix(1.11,0,0,1.11,-10.613258,401.00298)" />
          <path
             id="path54382-1"
             style="font-style:normal;font-weight:200;font-size:72px;line-height:1;font-family:Phenomena;font-variant-ligatures:none;text-align:center;text-anchor:middle;fill:#1a1a1a;fill-opacity:1"
             d="m 615.806,0.504 c 7.056,0 11.592,-4.896 11.592,-13.248 v -24.84 c 0,-8.424 -4.536,-13.32 -11.592,-13.32 -7.056,0 -11.592,4.896 -11.592,13.32 v 24.84 c 0,8.352 4.536,13.248 11.592,13.248 z m 0,-1.368 c -6.192,0 -10.152,-4.32 -10.152,-11.88 v -24.84 c 0,-7.632 3.96,-11.952 10.152,-11.952 6.192,0 10.152,4.32 10.152,11.952 v 24.84 c 0,7.56 -3.96,11.88 -10.152,11.88 z"
             stroke-width="0"
             stroke-linejoin="miter"
             stroke-miterlimit="2"
             fill="#a49dee"
             stroke="#a49dee"
             transform="matrix(1.11,0,0,1.11,-10.613258,401.00298)" />
        </g>
        <g
           id="slogan"
           style="font-style:normal;font-weight:700;font-size:32px;line-height:1;font-family:'Noto Sans';font-variant-ligatures:none;text-align:center;text-anchor:middle" />
        <g
           id="title"
           style="font-style:normal;font-weight:200;font-size:72px;line-height:1;font-family:Phenomena;font-variant-ligatures:none;text-align:center;text-anchor:middle;display:none;fill:#c4eeff;fill-opacity:1">
          <path
             id="path54366"
             style="font-style:normal;font-weight:200;font-size:72px;line-height:1;font-family:Phenomena;font-variant-ligatures:none;text-align:center;text-anchor:middle;fill:#c4eeff;fill-opacity:1"
             d="m 426.0995,-50.904 c -4.392,0 -7.848,3.096 -9.288,7.344 -1.44,-4.248 -4.968,-7.344 -9.288,-7.344 -6.336,0 -10.152,5.184 -10.152,11.88 V -0.36 c 0,0.216 0.144,0.36 0.36,0.36 h 0.72 c 0.216,0 0.36,-0.144 0.36,-0.36 v -38.664 c 0,-6.048 3.24,-10.512 8.712,-10.512 5.04,0 8.568,4.68 8.568,10.512 V -0.36 c 0,0.216 0.144,0.36 0.36,0.36 h 0.72 c 0.216,0 0.36,-0.144 0.36,-0.36 v -38.664 c 0,-5.832 3.6,-10.512 8.568,-10.512 5.544,0 8.712,4.464 8.712,10.512 V -0.36 c 0,0.216 0.144,0.36 0.36,0.36 h 0.72 c 0.216,0 0.36,-0.144 0.36,-0.36 v -38.664 c 0,-6.696 -3.888,-11.88 -10.152,-11.88 z"
             stroke-width="0"
             stroke-linejoin="miter"
             stroke-miterlimit="2"
             fill="#a49dee"
             stroke="#a49dee"
             transform="matrix(1.11,0,0,1.11,-102.88089,401.00298)" />
          <path
             id="path54368"
             style="font-style:normal;font-weight:200;font-size:72px;line-height:1;font-family:Phenomena;font-variant-ligatures:none;text-align:center;text-anchor:middle;fill:#c4eeff;fill-opacity:1"
             d="m 447.59487,-42.12 c 0.936,0 1.584,-0.648 1.584,-1.584 0,-0.936 -0.648,-1.584 -1.584,-1.584 -0.93599,0 -1.584,0.648 -1.584,1.584 0,0.936 0.64801,1.584 1.584,1.584 z m -0.36,42.12 h 0.64801 c 0.216,0 0.36,-0.144 0.36,-0.36 v -35.28 c 0,-0.216 -0.144,-0.36 -0.36,-0.36 h -0.64801 c -0.216,0 -0.36,0.144 -0.36,0.36 v 35.28 c 0,0.216 0.144,0.36 0.36,0.36 z"
             stroke-width="0"
             stroke-linejoin="miter"
             stroke-miterlimit="2"
             fill="#a49dee"
             stroke="#a49dee"
             transform="matrix(1.11,0,0,1.11,-102.88089,401.00298)" />
          <path
             id="path54370"
             style="font-style:normal;font-weight:200;font-size:72px;line-height:1;font-family:Phenomena;font-variant-ligatures:none;text-align:center;text-anchor:middle;fill:#c4eeff;fill-opacity:1"
             d="m 459.60987,0 h 0.64801 c 0.216,0 0.36,-0.144 0.36,-0.36 v -49.68 c 0,-0.216 -0.144,-0.36 -0.36,-0.36 h -0.64801 c -0.216,0 -0.36,0.144 -0.36,0.36 v 49.68 c 0,0.216 0.144,0.36 0.36,0.36 z"
             stroke-width="0"
             stroke-linejoin="miter"
             stroke-miterlimit="2"
             fill="#a49dee"
             stroke="#a49dee"
             transform="matrix(1.11,0,0,1.11,-102.88089,401.00298)" />
          <path
             id="path54372"
             style="font-style:normal;font-weight:200;font-size:72px;line-height:1;font-family:Phenomena;font-variant-ligatures:none;text-align:center;text-anchor:middle;fill:#c4eeff;fill-opacity:1"
             d="m 480.12087,-19.944 10.87201,-15.624 c 0.144,-0.216 0.072,-0.432 -0.216,-0.432 h -0.86401 c -0.144,0 -0.36,0.072 -0.43199,0.216 l -10.87201,15.768 h -5.61599 V -50.04 c 0,-0.216 -0.144,-0.36 -0.36,-0.36 h -0.64801 c -0.216,0 -0.36,0.144 -0.36,0.36 v 49.68 c 0,0.216 0.144,0.36 0.36,0.36 h 0.64801 c 0.216,0 0.36,-0.144 0.36,-0.36 v -18.36 h 7.84799 c 5.32801,0 8.49601,3.24 8.49601,8.784 v 9.576 c 0,0.216 0.144,0.36 0.35999,0.36 h 0.648 c 0.216,0 0.36001,-0.144 0.36001,-0.36 v -9.576 c 0,-6.264 -3.96001,-10.008 -10.58401,-10.008 z"
             stroke-width="0"
             stroke-linejoin="miter"
             stroke-miterlimit="2"
             fill="#a49dee"
             stroke="#a49dee"
             transform="matrix(1.11,0,0,1.11,-102.88089,401.00298)" />
          <path
             id="path54374"
             style="font-style:normal;font-weight:200;font-size:72px;line-height:1;font-family:Phenomena;font-variant-ligatures:none;text-align:center;text-anchor:middle;fill:#c4eeff;fill-opacity:1"
             d="m 517.48212,-36 h -0.648 c -0.216,0 -0.36,0.144 -0.36,0.36 v 24.48 c 0,5.688 -3.096,9.864 -8.352,9.864 -5.328,0 -8.496,-4.176 -8.496,-9.864 v -24.48 c 0,-0.216 -0.144,-0.36 -0.36,-0.36 h -0.64799 c -0.21601,0 -0.36001,0.144 -0.36001,0.36 v 24.48 c 0,6.408 3.744,11.16 9.864,11.16 3.81601,0 6.91201,-2.16 8.352,-5.544 V 4.32 c 0,5.256 -3.096,9.504 -8.424,9.504 -5.184,0 -8.28,-3.96 -8.424,-8.928 0,-0.216 -0.144,-0.36 -0.36,-0.36 h -0.64799 c -0.21601,0 -0.36001,0.144 -0.36001,0.36 0.144,5.688 3.888,10.224 9.792,10.224 6.048,0 9.792,-4.824 9.792,-10.8 v -39.96 c 0,-0.216 -0.144,-0.36 -0.36,-0.36 z"
             stroke-width="0"
             stroke-linejoin="miter"
             stroke-miterlimit="2"
             fill="#a49dee"
             stroke="#a49dee"
             transform="matrix(1.11,0,0,1.11,-102.88089,401.00298)" />
          <path
             id="path54376"
             style="font-style:normal;font-weight:200;font-size:72px;line-height:1;font-family:Phenomena;font-variant-ligatures:none;text-align:center;text-anchor:middle;display:none;fill:#c4eeff;fill-opacity:1"
             d="M 528.43737,-57.24 V 4.68 c 0,0.216 0.144,0.36 0.36,0.36 h 0.72001 c 0.216,0 0.36,-0.144 0.36,-0.36 v -61.92 c 0,-0.216 -0.144,-0.36 -0.36,-0.36 h -0.72001 c -0.216,0 -0.36,0.144 -0.36,0.36 z"
             stroke-width="0"
             stroke-linejoin="miter"
             stroke-miterlimit="2"
             fill="#a49dee"
             stroke="#a49dee" />
          <path
             id="path54378"
             style="font-style:normal;font-weight:200;font-size:72px;line-height:1;font-family:Phenomena;font-variant-ligatures:none;text-align:center;text-anchor:middle;fill:#c4eeff;fill-opacity:1"
             d="m 541.82713,0.144 h 9.432 c 6.69599,0 11.376,-5.4 11.376,-11.88 v -27.936 c 0,-6.192 -4.68001,-10.872 -11.376,-10.872 h -9.432 c -0.43201,0 -0.72001,0.288 -0.72001,0.72 v 49.248 c 0,0.432 0.288,0.72 0.72001,0.72 z m 0.72,-1.368 v -47.952 h 8.712 c 5.904,0 9.93599,4.032 9.93599,9.504 v 27.936 c 0,5.76 -4.03199,10.512 -9.93599,10.512 z"
             stroke-width="0"
             stroke-linejoin="miter"
             stroke-miterlimit="2"
             fill="#a49dee"
             stroke="#a49dee"
             transform="matrix(1.11,0,0,1.11,-10.613258,401.00298)" />
          <path
             id="path54380"
             style="font-style:normal;font-weight:200;font-size:72px;line-height:1;font-family:Phenomena;font-variant-ligatures:none;text-align:center;text-anchor:middle;fill:#c4eeff;fill-opacity:1"
             d="m 572.669,0 h 0.72 c 0.216,0 0.36,-0.144 0.36,-0.36 v -19.584 h 19.368 V -0.36 c 0.072,0.216 0.216,0.36 0.432,0.36 h 0.72 c 0.216,0 0.36,-0.144 0.288,-0.36 v -37.944 c -0.072,-7.56 -4.536,-12.6 -11.16,-12.6 -6.624,0 -11.088,5.04 -11.088,12.6 V -0.36 c 0,0.216 0.144,0.36 0.36,0.36 z m 1.08,-21.312 v -16.992 c 0,-6.84 3.888,-11.232 9.648,-11.232 5.976,0 9.72,4.392 9.72,11.232 v 16.992 z"
             stroke-width="0"
             stroke-linejoin="miter"
             stroke-miterlimit="2"
             fill="#a49dee"
             stroke="#a49dee"
             transform="matrix(1.11,0,0,1.11,-10.613258,401.00298)" />
          <path
             id="path54382"
             style="font-style:normal;font-weight:200;font-size:72px;line-height:1;font-family:Phenomena;font-variant-ligatures:none;text-align:center;text-anchor:middle;fill:#c4eeff;fill-opacity:1"
             d="m 615.806,0.504 c 7.056,0 11.592,-4.896 11.592,-13.248 v -24.84 c 0,-8.424 -4.536,-13.32 -11.592,-13.32 -7.056,0 -11.592,4.896 -11.592,13.32 v 24.84 c 0,8.352 4.536,13.248 11.592,13.248 z m 0,-1.368 c -6.192,0 -10.152,-4.32 -10.152,-11.88 v -24.84 c 0,-7.632 3.96,-11.952 10.152,-11.952 6.192,0 10.152,4.32 10.152,11.952 v 24.84 c 0,7.56 -3.96,11.88 -10.152,11.88 z"
             stroke-width="0"
             stroke-linejoin="miter"
             stroke-miterlimit="2"
             fill="#a49dee"
             stroke="#a49dee"
             transform="matrix(1.11,0,0,1.11,-10.613258,401.00298)" />
        </g>
        <g
           id="g466"
           transform="matrix(0.85084467,0,0,0.85084467,79.085481,55.690036)"
           style="display:inline">
          <path
             style="display:none;fill:#000000;fill-opacity:1;stroke:none;stroke-width:0.499287;stroke-opacity:1"
             d="m 487.53966,327.68407 c -0.18634,2.44232 -1.0527,3.30868 -3.49502,3.49502 0.19022,2.44131 1.13638,2.91828 3.49502,2.99572 v 2.99573 h 2.99572 v -2.99573 h 2.99573 v -2.99572 h -2.99573 c -0.0774,-2.35864 -0.55441,-3.3048 -2.99572,-3.49502 m 19.97149,0 v 2.99573 h 2.99573 v -2.99573 h -2.99573 m 18.47364,41.94015 c -8.84747,10.80458 -3.6808,25.53705 11.48361,22.73555 10.06663,-1.85934 17.66978,-11.27041 21.53277,-20.23911 8.69958,-20.19553 -1.47989,-42.1809 -25.02778,-42.80928 -15.35938,-0.40987 -29.31596,7.9365 -39.943,18.34419 v 0.49929 l 1.99715,1.99715 h 0.49929 c 8.66838,-8.66264 19.7941,-16.54309 32.45368,-17.43037 20.19968,-1.41573 35.66311,14.13442 28.52679,34.40614 -2.88788,8.20379 -8.83189,17.34625 -17.04318,20.9486 -7.24615,3.17897 -16.30298,1.25671 -15.97719,-7.96712 16.66022,10.83853 35.11738,-14.91751 22.30516,-28.31489 -7.7764,-8.13175 -20.46858,-8.03639 -30.29376,-4.23316 -17.71926,6.85886 -30.50663,26.39622 -31.99716,45.03023 -0.60882,7.61114 0.59412,22.89433 8.57339,27.08535 2.04498,1.07446 2.69485,-1.15086 1.78645,-2.62076 -4.18763,-6.77484 -7.46984,-12.17513 -7.69118,-20.47029 -0.56144,-21.03847 18.54873,-47.87667 40.81211,-48.42354 6.71941,-0.16507 14.07541,1.95636 17.90794,7.98166 5.07426,7.97816 -1.3995,20.95919 -9.91934,23.46611 7.11734,-8.82501 5.96249,-24.594 -8.48789,-23.15755 -21.09654,2.0972 -35.40033,32.62454 -24.23162,50.61836 6.61192,10.65229 19.61826,13.56164 31.22165,12.3968 9.47348,-0.95064 18.54203,-5.59451 25.96294,-11.34231 2.8015,-2.1699 7.9896,-5.29544 5.49216,-9.04309 h -0.49928 c -8.64117,8.63567 -19.82371,16.54538 -32.45369,17.43012 -20.19243,1.41548 -35.72846,-14.13532 -28.52718,-34.40589 2.92427,-8.23146 8.84028,-17.3097 17.04357,-21.01786 7.23732,-3.27148 16.29774,-1.03253 15.9772,8.03638 -16.69767,-10.86265 -35.14984,14.88376 -22.30537,28.31509 7.93688,8.29916 20.84446,7.9901 30.79326,4.03674 17.35173,-6.89516 30.11152,-26.49069 31.49754,-44.83401 0.57668,-7.63496 -0.58716,-22.89118 -8.57326,-27.08558 -2.04458,-1.07409 -2.69465,1.15114 -1.78645,2.62089 3.19045,5.16128 6.34994,9.20651 7.17726,15.47751 2.96327,22.47018 -15.89033,52.81712 -40.29799,53.41627 -6.71956,0.16526 -14.07501,-1.95621 -17.90769,-7.98161 -5.0825,-7.9901 1.36984,-20.9503 9.91909,-23.46601 m 29.95725,-38.44513 v 2.99572 h 2.99572 v -2.99572 h -2.99572 m -68.40238,22.96722 v 3.49501 c 3.43934,-0.26797 3.43934,-3.22704 0,-3.49501 m -3.49502,13.98005 h 2.99573 v -2.99573 c -2.17926,0.16981 -2.82593,0.81649 -2.99573,2.99573 m 46.93352,2.2017 c 6.14823,-1.22804 5.04081,7.57085 -9e-4,8.57791 -6.14822,1.22825 -5.04075,-7.57089 9e-4,-8.57791 m 43.9368,21.26481 v 3.49501 c 3.43959,-0.26812 3.43959,-3.2269 0,-3.49501 m -7.9886,20.47078 v 2.99573 h -2.99573 v 2.99572 h 2.99573 v 3.49501 h 2.99572 v -3.49501 h 2.99573 v -2.99572 h -2.99573 v -2.99573 h -2.99572 m -62.41093,6.49074 v 2.99572 h 2.99572 v -2.99572 z"
             id="path3558-7" />
          <path
             style="fill:#fd7922;fill-opacity:1;stroke:none;stroke-width:0.499287;stroke-opacity:1"
             d="m 486.35985,325.1887 c -0.18634,2.44232 -1.0527,3.30868 -3.49502,3.49502 0.19022,2.44131 1.13638,2.91828 3.49502,2.99572 v 2.99573 h 2.99572 v -2.99573 h 2.99573 v -2.99572 h -2.99573 c -0.0774,-2.35864 -0.55441,-3.3048 -2.99572,-3.49502 m 19.97149,0 v 2.99573 h 2.99573 v -2.99573 h -2.99573 m 18.47364,41.94015 c -8.84747,10.80458 -3.6808,25.53705 11.48361,22.73555 10.06663,-1.85934 17.66978,-11.27041 21.53277,-20.23911 8.69958,-20.19553 -1.47989,-42.1809 -25.02778,-42.80928 -15.35938,-0.40987 -29.31596,7.9365 -39.943,18.34419 v 0.49929 l 1.99715,1.99715 h 0.49929 c 8.66838,-8.66264 19.7941,-16.54309 32.45368,-17.43037 20.19968,-1.41573 35.66311,14.13442 28.52679,34.40614 -2.88788,8.20379 -8.83189,17.34625 -17.04318,20.9486 -7.24615,3.17897 -16.30298,1.25671 -15.97719,-7.96712 16.66022,10.83853 35.11738,-14.91751 22.30516,-28.31489 -7.7764,-8.13175 -20.46858,-8.03639 -30.29376,-4.23316 -17.71926,6.85886 -30.50663,26.39622 -31.99716,45.03023 -0.60882,7.61114 0.59412,22.89433 8.57339,27.08535 2.04498,1.07446 2.69485,-1.15086 1.78645,-2.62076 -4.18763,-6.77484 -7.46984,-12.17513 -7.69118,-20.47029 -0.56144,-21.03847 18.54873,-47.87667 40.81211,-48.42354 6.71941,-0.16507 14.07541,1.95636 17.90794,7.98166 5.07426,7.97816 -1.3995,20.95919 -9.91934,23.46611 7.11734,-8.82501 5.96249,-24.594 -8.48789,-23.15755 -21.09654,2.0972 -35.40033,32.62454 -24.23162,50.61836 6.61192,10.65229 19.61826,13.56164 31.22165,12.3968 9.47348,-0.95064 18.54203,-5.59451 25.96294,-11.34231 2.8015,-2.1699 7.9896,-5.29544 5.49216,-9.04309 h -0.49928 c -8.64117,8.63567 -19.82371,16.54538 -32.45369,17.43012 -20.19243,1.41548 -35.72846,-14.13532 -28.52718,-34.40589 2.92427,-8.23146 8.84028,-17.3097 17.04357,-21.01786 7.23732,-3.27148 16.29774,-1.03253 15.9772,8.03638 -16.69767,-10.86265 -35.14984,14.88376 -22.30537,28.31509 7.93688,8.29916 20.84446,7.9901 30.79326,4.03674 17.35173,-6.89516 30.11152,-26.49069 31.49754,-44.83401 0.57668,-7.63496 -0.58716,-22.89118 -8.57326,-27.08558 -2.04458,-1.07409 -2.69465,1.15114 -1.78645,2.62089 3.19045,5.16128 6.34994,9.20651 7.17726,15.47751 2.96327,22.47018 -15.89033,52.81712 -40.29799,53.41627 -6.71956,0.16526 -14.07501,-1.95621 -17.90769,-7.98161 -5.0825,-7.9901 1.36984,-20.9503 9.91909,-23.46601 m 29.95725,-38.44513 v 2.99572 h 2.99572 v -2.99572 h -2.99572 m -68.40238,22.96722 v 3.49501 c 3.43934,-0.26797 3.43934,-3.22704 0,-3.49501 m -3.49502,13.98005 h 2.99573 v -2.99573 c -2.17926,0.16981 -2.82593,0.81649 -2.99573,2.99573 m 46.93352,2.2017 c 6.14823,-1.22804 5.04081,7.57085 -9e-4,8.57791 -6.14822,1.22825 -5.04075,-7.57089 9e-4,-8.57791 m 43.9368,21.26481 v 3.49501 c 3.43959,-0.26812 3.43959,-3.2269 0,-3.49501 m -7.9886,20.47078 v 2.99573 h -2.99573 v 2.99572 h 2.99573 v 3.49501 h 2.99572 v -3.49501 h 2.99573 v -2.99572 h -2.99573 v -2.99573 h -2.99572 m -62.41093,6.49074 v 2.99572 h 2.99572 v -2.99572 z"
             id="path3558" />
        </g>
        <g
           id="g474"
           transform="translate(0,-4.5940028)">
          <text
             xml:space="preserve"
             style="font-style:normal;font-variant:normal;font-weight:bold;font-stretch:normal;font-size:49.7684px;line-height:1.25;font-family:Nasalization;-inkscape-font-specification:'Nasalization Bold';fill:#f9fafb;fill-opacity:1;stroke:none;stroke-width:1.61148"
             x="340.66254"
             y="395.09711"
             id="text515"><tspan
               sodipodi:role="line"
               id="tspan513"
               style="font-style:normal;font-variant:normal;font-weight:bold;font-stretch:normal;font-size:49.7684px;font-family:Nasalization;-inkscape-font-specification:'Nasalization Bold';fill:#f9fafb;fill-opacity:1;stroke-width:1.61148"
               x="340.66254"
               y="395.09711">Milky</tspan></text>
          <text
             xml:space="preserve"
             style="font-style:normal;font-variant:normal;font-weight:bold;font-stretch:normal;font-size:49.7684px;line-height:1.25;font-family:Nasalization;-inkscape-font-specification:'Nasalization Bold';fill:#f9fafb;fill-opacity:1;stroke:none;stroke-width:1.61148"
             x="575.56012"
             y="398.63068"
             id="text569"><tspan
               sodipodi:role="line"
               id="tspan567"
               style="font-style:normal;font-variant:normal;font-weight:bold;font-stretch:normal;font-size:49.7684px;font-family:Nasalization;-inkscape-font-specification:'Nasalization Bold';fill:#f9fafb;fill-opacity:1;stroke-width:1.61148"
               x="575.56012"
               y="398.63068">DAO</tspan></text>
        </g>
      </g>
    </g>
  </g>
</svg>
